<svg xmlns="http://www.w3.org/2000/svg" width="374" height="220" viewBox="0 0 374 220"><path fill="#74b1dc" fill-rule="evenodd" d="M167 210c-57.99 0-105-47.01-105-105S109.01 0 167 0s105 47.01 105 105-47.01 105-105 105zm0-205C111.771 5 67 49.772 67 105s44.771 100 100 100c55.228 0 100-44.772 100-100S222.228 5 167 5zm0 190c-49.706 0-90-40.294-90-90s40.294-90 90-90 90 40.294 90 90-40.294 90-90 90z"/><path fill="#74b1dc" fill-rule="evenodd" d="M300.878 104.92c-4.307 1.388-8.2.836-10.757.089-.131-7.39-5.093-14.107-12.588-16.115l-43.466-11.647c-9.069-2.43-18.391 2.952-20.821 12.021-2.43 9.069 2.952 18.391 12.021 20.821l43.467 11.647c4.61 1.235 9.282.444 13.085-1.818 3.264 1.059 9.103 2.525 14.146 1.602-5.035 8.919-15.606 13.684-25.956 10.91l-51.194-13.717c-12.27-3.288-19.551-15.9-16.263-28.169l2.07-7.728c3.288-12.269 15.9-19.551 28.169-16.263l51.194 13.717c11.097 2.973 18.084 13.575 16.893 24.65zm-236.69 45.064c-7.124 4.113-15.531 3.977-22.299.386 1.821-4.2 4.145-8.415 6.542-9.77 4.535 1.619 9.723 1.321 14.221-1.276l38.971-22.5c8.131-4.694 10.917-15.091 6.223-23.222-4.695-8.131-15.092-10.917-23.223-6.223l-38.971 22.5c-5.754 3.322-8.814 9.5-8.457 15.71-3.725 1.401-6.807 4.244-9.266 7.436-5.124-10.728-1.212-23.761 9.259-29.806l45.899-26.5c11.001-6.351 25.068-2.582 31.419 8.419l4 6.928c6.351 11 2.582 25.067-8.419 31.418l-45.899 26.5z"/><path fill="#74b1dc" fill-rule="evenodd" d="M358.814 97.283l-62.189 20.146c-12.206 3.271-22.429-3.58-22.795-14.22l-.212-6.162c-.068-1.988.274-3.963.924-5.87l8.252 2.211c-.417 1.432-.604 2.91-.486 4.391.588 7.42 8.105 11.99 16.745 9.675l52.67-17.596c8.641-2.315 12.864-10.032 9.663-16.751-2.971-6.239-11.352-9.338-18.905-7.314l-47.459 16.2c-.018.004-.034.011-.051.016l-7.624-4.233a24.338 24.338 0 0 1 3.572-1.264l52.374-17.517c9.854-2.641 21.004 1.155 25.252 9.134l2.898 5.441c5.004 9.398-.422 20.442-12.629 23.713z"/><path fill="#74b1dc" fill-rule="evenodd" d="M19.31 219.216l-5.973-1.7c-9.847-1.501-16.291-13.964-9.913-25.011l27.807-56.02c6.378-11.047 22.332-14.52 28.671-6.942l3.523 4.212c.524.627.978 1.318 1.389 2.043l-6.77 3.908a8.278 8.278 0 0 0-.573-.676c-4.615-4.802-12.341-2.929-16.751 4.71l-24.798 50.271c-4.41 7.638-2.097 15.142 4.448 16.6 5.868 1.307 10.397-3.539 14.014-9.803l21.362-45.053c.107-.186.209-.371.314-.557l.288.499 10.362-5.983c-.524 3.064-1.575 6.109-3.15 8.838l-23.052 47.247c-4.648 8.05-13.462 14.597-21.198 13.417z"/><path fill="#fff" fill-rule="evenodd" d="M139.874 110.69l.259-.966 5.865-2.57 1.414 2.45 3.22-.384c-.019.066-.045.127-.063.194-2.43 9.069 2.952 18.391 12.021 20.821l43.466 11.647c9.069 2.43 18.391-2.952 20.821-12.021.023-.085.033-.17.055-.255l2.325 2.963 3.933-3.087.19 3.156 3.415-1.155-1.294 4.83c-3.288 12.269-15.899 19.551-28.169 16.263l-51.194-13.717c-12.27-3.288-19.551-15.9-16.264-28.169zm-43.102 1.915l-2.447-1.413-3.793 5.154-1.81-6.756c-2.202-8.22.358-16.578 5.968-22.196 4.445.459 8.451 3.118 10.754 5.618-5.209 4.023-7.802 10.893-6.077 17.652l-2.595 1.941zm17.734-27.467l4 6.928c6.351 11 2.582 25.067-8.419 31.418l-26.505 15.303a89.082 89.082 0 0 1-3.282-9.652l21.323-12.311c8.131-4.694 10.917-15.091 6.223-23.222-4.695-8.131-15.092-10.917-23.223-6.223l-6.564 3.79a89.366 89.366 0 0 1 3.13-13.354l1.898-1.096c11.001-6.351 25.068-2.582 31.419 8.419zm69.781-1.16l.776 2.896-2.379 2.707-1.741-2.637-1.861 4.637-3.493-1.402c-2.532-8.909-11.748-14.171-20.727-11.764l-34.956 9.368-5.172-8.96 41.404-11.096c12.261-3.286 24.864 3.99 28.149 16.251zm49.78-6.731c-9.069-2.43-18.391 2.952-20.821 12.021-2.43 9.069 2.952 18.391 12.021 20.821l30.744 8.238a89.494 89.494 0 0 1-2.027 9.809l-35.169-9.423c-12.27-3.288-19.551-15.9-16.263-28.169l2.07-7.728c3.288-12.269 15.9-19.551 28.169-16.263l17.655 4.73a89.258 89.258 0 0 1 3.751 11.358l-20.13-5.394z"/></svg>